<svg data-name="Layer 1" xmlns="http://www.w3.org/2000/svg" width="1059.13" height="789.41"><defs><linearGradient id="a" x1="602.85" y1="654.57" x2="602.85" y2="287.56" gradientUnits="userSpaceOnUse"><stop offset="0" stop-color="gray" stop-opacity=".25"/><stop offset=".54" stop-color="gray" stop-opacity=".12"/><stop offset="1" stop-color="gray" stop-opacity=".1"/></linearGradient></defs><path d="M1041.77 351.52c-.19 1.12-.38 2.24-.59 3.36-6.78 38.14-17.85 74.91-34.31 108.67q-.81 1.68-1.65 3.36a310.57 310.57 0 0 1-38.66 59.62c-8.2 9.89-17.14 19.28-27.77 26.06-14.9 9.5-32.32 13.36-49.44 16.52-17.79 3.29-35.81 6-53.79 9q-9.56 1.56-19 3.27c-17.37 3.14-34.61 6.77-51.44 11.58-20.81 6-41 13.73-60 24.68q-2.28 1.3-4.51 2.67c-1.49.9-3 1.82-4.45 2.76s-2.91 1.87-4.35 2.82l-2.22 1.5c-.73.48-1.45 1-2.17 1.48-2.14 1.46-4.25 3-6.36 4.48l-.08.06-4.15 3a804.08 804.08 0 0 0-23 17.87l-4.79 3.83-7.42 5.87c-1.45 1.15-2.92 2.29-4.38 3.43-1.06.83-2.11 1.66-3.19 2.48a431.17 431.17 0 0 1-16.48 12.15l-4 2.77a210.89 210.89 0 0 1-35.54 19.58l-.16.07a141 141 0 0 1-18.88 6.51c-3.69 1-7.38 1.79-11.12 2.41a98.28 98.28 0 0 1-30.15.52c-19.69-2.79-38.14-12-57.78-15.08-40.52-6.29-79.87 14-118 29.93q-14 5.86-28.31 11-9.48 3.42-19.05 6.51a599.78 599.78 0 0 1-119.53 25.57c-16.58 1.81-33.87 2.67-50.75 1.37a171.42 171.42 0 0 1-19-2.47c-21.37-4-41.32-12.49-57.39-28-13.35-12.69-22.77-29.28-29.95-46.59q-4.33-10.43-7.63-21.34a238 238 0 0 1-7.77-34.83c-.39-2.66-.74-5.33-1-8Q.78 625.1.4 618.17a239 239 0 0 1 7.11-73c6.81-26.39 18.17-51.66 23.17-78.3.21-1.12.4-2.24.59-3.36q1-6 1.52-12.22c2.52-32.58-7.23-64.47-14.93-96.41l-.8-3.36q-1.25-5.31-2.37-10.63c-7.13-33.78-9.08-69.93-2.75-103.64.2-1.12.43-2.25.66-3.36 4.27-20.88 11.81-40.74 23.36-58.43 11.85-18.16 27.41-33.27 44-46.55q12.15-9.7 25.13-18.15 9.33-6.06 19-11.47c52.09-29 111.52-43.17 170.28-40q4.67.24 9.32.64 4.88.42 9.73 1c37.83 4.37 74.64 15.2 111.23 27.05l36.72 12q8.16 2.66 16.31 5.25c26.65 8.41 53.74 16 81.08 21.72q9.51 2 19 3.65a449.08 449.08 0 0 0 66.59 6.86q13 .32 26-.27 6.57-.3 13.15-.88c45.31-3.88 89-16.89 132.87-29.11 6.34-1.77 12.69-3.53 19-5.23a920.72 920.72 0 0 1 25.07-6.41c52.18-12.53 98.68-5.33 147.19 20.51 11 5.87 22 12.95 28.8 23.91s8.45 24.53 9.71 37.59c1.78 18.58 3 37.42 3.39 56.34 0 1.12 0 2.24.07 3.36.88 38.31-1.45 76.91-7.83 114.25z" fill="#6c63ff" opacity=".1"/><path d="M695.68 463.55h-3.41V466.91h3.86zm-38.65 0a.22.22 0 0 0 0 .08l-.3 2.78v.5h29.6v-.2l2.11-3.16zm-79.15 0V354.88h34c-.36-.3-.73-.6-1.11-.88l-.5-.38c-.21-.17-.42-.33-.64-.48s-.74-.53-1.13-.79-.63-.43-1-.64l-.23-.15h-29.39v-5.95l-.79.38-.84.47h-.06l-.18.11-.52.34-.53.34c-.52.35-1 .73-1.55 1.12l-.5.4-1 .8c-1.33 1.09-2.64 2.23-4 3.28l-1 .78a25.81 25.81 0 0 1-2.26 1.48 10.74 10.74 0 0 1-1 .55l-.56.26-.51.22a21.24 21.24 0 0 1-3.72 1.18v106.23h-51c0 .12.07.23.1.35l.83 3h50.08v116.49h.78l.89.06 1.62.12 2.62.26 1.18.14 1.3.16h.19c.75.1 1.51.22 2.28.34l.49.08 1.1.18 1.58.28 3.79-.2.52.11c.21 0 .42.08.64.13V466.91h78.81v-.5l.3-2.78a.22.22 0 0 1 0-.08zm117.8 0h-3.41V466.91h3.86zm-40.78 0l-.34 3.36h32.93l2.24-3.36zm-77 0V354.88h34c-.36-.3-.73-.6-1.11-.88l-.5-.38c-.21-.17-.42-.33-.64-.48s-.74-.53-1.13-.79-.63-.43-1-.64l-.23-.15h-29.41v-5.95l-.79.38-.84.47h-.06l-.18.11-.52.34-.53.34c-.52.35-1 .73-1.55 1.12l-.5.4-1 .8c-1.33 1.09-2.64 2.23-4 3.28l-1 .78a25.81 25.81 0 0 1-2.26 1.48 10.74 10.74 0 0 1-1 .55l-.56.26-.51.22a21.24 21.24 0 0 1-3.72 1.18v106.23h-51c0 .12.07.23.1.35l.84 3h50.07v116.48l.78.05.89.06 1.62.12 2.62.26 1.18.14 1.3.16h.19c.75.1 1.51.22 2.28.34l.49.08 1.1.18 1.58.28 3.79-.2.52.11c.21 0 .42.08.64.13V466.91h76.71l.36-3.36zm257.66-226.3h214.23c0-1.12 0-2.24-.07-3.36H835.56V101.95c-6.36 1.7-12.71 3.46-19 5.23v126.71h-233l-.59-.64.89-1 86.66-95.11q-13 .6-26 .27l-66.64 73.1v-79.93q-9.54-1.65-19-3.65v79.9L461.45 99.96c-12.23-4-24.46-8.07-36.72-12l132.43 145.29-.59.64H313.5v-173q-4.86-.55-9.73-1-4.65-.41-9.32-.64v174.64H124.17V99.29q-9.69 5.4-19 11.47v123.13H12.56c-.23 1.11-.46 2.24-.66 3.36h93.19v114.27H17.06l.8 3.36h87.27v108.67H31.24c-.19 1.12-.38 2.24-.59 3.36h74.48v303.85a171.42 171.42 0 0 0 19 2.47V466.91h170.32v279.38q9.58-3.11 19.05-6.51V466.91h245.34v244.1a141 141 0 0 0 18.88-6.51l.16-.07V466.91H816.5v114.47q9.49-1.71 19-3.27v-111.2h169.67q.84-1.68 1.65-3.36H835.56V354.88h205.63c.21-1.12.4-2.24.59-3.36H835.56zm-711.38 0h170.27v114.27H124.17zm0 226.3V354.88h170.27v108.67zm189.33-226.3h245.33v114.27H313.5zm0 226.3V354.88h245.33v108.67zm503 0H577.88V354.88H816.5zm0-112H577.88V240.31l3.35-3.06H816.5zm-159.47 112a.22.22 0 0 0 0 .08l-.3 2.78v.5h29.6v-.2l2.11-3.16zm38.65 0h-3.41V466.91h3.86zm-117.8 0V354.88h34c-.36-.3-.73-.6-1.11-.88l-.5-.38c-.21-.17-.42-.33-.64-.48s-.74-.53-1.13-.79-.63-.43-1-.64l-.23-.15H577.88v-5.95l-.79.38-.84.47h-.06l-.18.11-.52.34-.53.34c-.52.35-1 .73-1.55 1.12l-.5.4-1 .8c-1.33 1.09-2.64 2.23-4 3.28l-1 .78a25.81 25.81 0 0 1-2.26 1.48 10.74 10.74 0 0 1-1 .55l-.56.26-.51.22a21.24 21.24 0 0 1-3.72 1.18v106.23h-51c0 .12.07.23.1.35l.83 3h50.08v116.49h.78l.89.06 1.62.12 2.62.26 1.18.14 1.3.16h.19c.75.1 1.51.22 2.28.34l.49.08 1.1.18 1.58.28 3.79-.2.52.11c.21 0 .42.08.64.13V466.91h78.81v-.5l.3-2.78a.22.22 0 0 1 0-.08z" fill="#6c63ff" opacity=".1"/><path d="M206.04 158.57h1.52a3.64 3.64 0 0 1-1.81-2.93c0-2.32 2.84-4.21 6.31-4.21h44.15c3.47 0 6.31 1.89 6.31 4.21 0 2.31-2.84 4.21-6.31 4.21h-1.47a3.65 3.65 0 0 1 1.8 2.93c0 2-2.06 3.64-4.82 4.09h12.71c3.46 0 6.3 1.89 6.3 4.21s-2.84 4.2-6.3 4.2h-44.2c-3.46 0-6.3-1.89-6.3-4.2 0-2 2.06-3.64 4.82-4.09h-12.71c-3.46 0-6.3-1.89-6.3-4.21s2.82-4.21 6.3-4.21zM684.56 198.64h1.48a3.65 3.65 0 0 1-1.81-2.94c0-2.31 2.84-4.2 6.31-4.2h44.15c3.47 0 6.31 1.89 6.31 4.2 0 2.32-2.84 4.21-6.31 4.21h-1.47a3.66 3.66 0 0 1 1.8 2.94c0 2-2.06 3.63-4.82 4.08h12.71c3.46 0 6.3 1.9 6.3 4.21s-2.84 4.21-6.3 4.21h-44.14c-3.46 0-6.3-1.89-6.3-4.21 0-2 2.06-3.64 4.82-4.08h-12.73c-3.46 0-6.3-1.9-6.3-4.21s2.86-4.21 6.3-4.21zM138.31 370.11h1.48a3.66 3.66 0 0 1-1.8-2.94c0-2.31 2.83-4.21 6.3-4.21h44.15c3.47 0 6.31 1.9 6.31 4.21 0 2.32-2.84 4.21-6.31 4.21h-1.47a3.66 3.66 0 0 1 1.8 2.94c0 2-2.06 3.63-4.82 4.08h12.71c3.47 0 6.3 1.89 6.3 4.21s-2.83 4.21-6.3 4.21H152.5c-3.46 0-6.3-1.9-6.3-4.21 0-2 2.07-3.64 4.82-4.09h-12.71c-3.46 0-6.3-1.89-6.3-4.2s2.84-4.21 6.3-4.21z" fill="#6c63ff" opacity=".1"/><path d="M648.92 658.15l-7.42 5.87c-1.45 1.15-2.92 2.29-4.38 3.43-1.06.83-2.11 1.66-3.19 2.48a431.17 431.17 0 0 1-16.48 12.15l-4 2.77a210.89 210.89 0 0 1-35.54 19.58l-.16.07v-46.35z" fill="#65617d"/><path d="M830.64 531.28l1.12-34.55c-.67-.52-1.35-1-2-1.48a184.18 184.18 0 0 0-1.76-30.81c-4.52-34.55-33.87-35.3-42.15-28.17a20 20 0 0 1-3.57 2.46c.75-4.93 1.68-9.87 2.35-14.75 3.62-26.32-2-55.93-22.42-72.94-8.55-7.11-19-11.48-28.39-17.43C717 323 703.71 307.33 686.7 297s-40.9-14.2-55.74-.92c-5.75 5.14-9.46 12.27-15.36 17.23-11 9.24-28.15 9.85-37.75 20.17-.48.52-.94 1.05-1.38 1.61-8 10.26-5.81 24.81-3.26 37.54 3.07 15.32 1.8 27.6 14.94 32 .05.61.09 1.22.16 1.82a64.91 64.91 0 0 0 28.56 46.72l-2.13.76a338.7 338.7 0 0 0-14.06 5.27c-12 4.89-37.26 11.26-37.26 11.26s-.6 7.2-.49 17.82c-8.42 9.15-22.47 25.23-26.6 34.76-6 13.9-39.9 53.71-48.93 59.72s-18.82 13.14-18.82 13.14-14.3 7.89-21.07 8.64c-4.69.52-19.2-2.26-19.2-2.26s-57.95-71-54.19-16.52 50.05 56.33 50.05 56.33l46.67-.75s25.22 3.38 36.51-6c9.64-8 59.6-51.89 75.65-71.8.37.41.74.81 1.13 1.2 0 0 6.39-8.26 7.15 0s-4.15 12-1.51 15 10.54 13.52 10.91 17.65-10.53 21 7.9 33.8c.29.2.6.39.94.58 3.29 7.49 13.75 14.82 13.75 14.82l56.45-.75 106.51 8.26s3.17-2.79 7.46-7.35c5.73 5.26 13.68 9.77 22.64 7 0 0 12.8-15.39 13.18-25.53 0 0-8.28-21.41-12-27.79s2.64-20.28 2.64-20.28 4.51-13.52 7.15-13.52.75-9 .75-9a10.94 10.94 0 0 1-1.13-10.14c2.21-5.69 3.72-16.21 3.72-16.21z" transform="translate(-70.44 -55.29)" fill="url(#a)"/><path d="M696.35 468.21l-4 4.68-16.16 18.82-21.11 1.28-33.79 2.08s-45.56-54.9-37-66.85c3.11-4.31 3.62-10 3-15.37-.08-.74-.19-1.48-.32-2.21a63.89 63.89 0 0 0-5.32-16.4l1.12-.51.72-.33 39.84-18.18 9.86-4.5a26.62 26.62 0 0 0 2.7 7.78c.19.38.4.76.62 1.12 13.59 22.5 57.17 8.27 57.17 8.27z" fill="#ee8e9e"/><path d="M755.26 440.12c-.3 13.62-2.52 19.5-2.52 19.5l-56.39 8.59-2.11-14.64-8.35-57.81 7.84-7.84a20.93 20.93 0 0 0 17.93-4.48c8.21-7.1 37.34-6.35 41.82 28a190.13 190.13 0 0 1 1.78 28.68z" fill="#ee8e9e"/><path d="M741.91 599.65s12.69-15.31 13.07-25.39l-12.7-21.29-11.2-12-20.92 40.38s13.82 23.9 31.75 18.3z" fill="#dfe5ee"/><path d="M741.91 599.65s12.69-15.31 13.07-25.39l-12.7-21.29-11.2-12-20.92 40.38s13.82 23.9 31.75 18.3z" opacity=".1"/><path d="M637.12 667.45c-1.06.83-2.11 1.66-3.19 2.48a431.17 431.17 0 0 1-16.48 12.15l-4 2.77h-319l-94.38-3.38-75.9-.64-19-1-94.8-5a238 238 0 0 1-7.81-34.86c-.39-2.66-.74-5.33-1-8l103.57 5.74 19 1.07 170.28 9.5 19.05 1.06 245.34 13.7 18.88 1.06h.16z" fill="#d48a9b"/><path d="M765.06 592.96c-20.81 6-41 13.73-60 24.68a266.02 266.02 0 0 0-8.96 5.43c-1.45.94-2.91 1.87-4.35 2.82l-2.22 1.5-2.17 1.48c-2.14 1.47-4.25 3-6.36 4.48l-.08.06-4.15 3a804.08 804.08 0 0 0-23 17.87l-4.81 3.83-7.4 5.87c-1.45 1.15-2.92 2.29-4.38 3.43-1.06.83-2.11 1.66-3.19 2.48l-56-2.67h-.16l-18.88-.88-245.45-11.63-19.05-.91-170.28-8.09-19-.91-102.61-4.83c-.39-2.66-.74-5.33-1-8Q.78 625.1.4 618.17l104.76-37 19-6.73 17.26-6.1 31.45 1.64 72.69 3.73 48.92 2.57 19.05 1 12.17.64 2.91.16 102.42 5.35 1.08.07 45.7 2.38H478.63l4.57.23 15.58.82 19.48 1 6.42.34 1.21.07 9.08.47 2.59.13 8.67.46 3.45.19h.83l8.11.43 12.56.66h.06l3.9.2h.42l2.33.13 5.72.3 5 .26h.05l5.61.29h.09l4.25.23 3.26.17 11.57.61 2.08.11h.72l1 .06 3.39.18 1.52.08 11.8.61h1.08l17.42-.15h.12l66.23-.54H725.35l21.32-.17h3.18z" fill="#efc6cd"/><path d="M318.07 594.33l6.16 32.77 167.48-2.52s12.6 3.64 12.32-6.44c0 0 25.49-24.09 154.6 3.92l-49.57-38.93-135.5 7.28-157.12-4.2z" fill="#6c63ff"/><path d="M321.15 586.49l5.88 35.57s144-4.2 166.64-.28l-17.11-32.49s-87.07-8.12-155.41-2.8z" fill="#fff"/><path d="M321.15 586.49l5.88 35.57s144-4.2 166.64-.28l-17.11-32.49s-87.07-8.12-155.41-2.8z" opacity=".1"/><path d="M323.3 586.36l5.8 33.08s142.17-3.9 164.57-.26l-16.87-30.21s-86.02-7.56-153.5-2.61z" fill="#fff"/><path d="M325.91 587.38l5.65 30.94s139.05-3.65 161-.24l-16.5-28.27s-84.14-7.1-150.15-2.43z" opacity=".1"/><path d="M327.03 586.25l5.68 31s139.05-3.65 161-.24l-16.54-28.3s-84.13-7.09-150.14-2.46z" fill="#fff"/><path d="M228.65 502.12s7.28 9.51-3.35 23.88-19.41 26.49-15.86 35.45c0 0 16-26.68 29.1-27s4.48-16.29-9.89-32.33z" fill="#6c63ff"/><path d="M228.65 502.12a11.56 11.56 0 0 1 1.49 3c12.74 15 19.53 29 7.28 29.3-11.41.32-25.09 20.72-28.37 25.88q.17.58.39 1.17s16-26.68 29.1-27 4.48-16.31-9.89-32.35z" opacity=".1"/><path d="M242.18 514.25c0 3.34-.38 6.06-.84 6.06s-.84-2.72-.84-6.06.47-1.78.93-1.78.75-1.57.75 1.78z" fill="#ffd037"/><path d="M246.82 518.24c-2.94 1.61-5.5 2.58-5.72 2.17s2-2 4.92-3.64 1.78-.44 2 0 1.74-.13-1.2 1.47z" fill="#ffd037"/><path d="M190.22 502.12s-7.28 9.51 3.36 23.88 19.4 26.49 15.86 35.45c0 0-16.05-26.68-29.11-27s-4.48-16.29 9.89-32.33z" fill="#6c63ff"/><path d="M190.22 502.12a12 12 0 0 0-1.49 3c-12.74 15-19.53 29-7.28 29.3 11.41.32 25.1 20.72 28.38 25.88q-.16.58-.39 1.17s-16.05-26.68-29.11-27-4.48-16.31 9.89-32.35z" opacity=".1"/><path d="M176.69 514.25c0 3.34.38 6.06.84 6.06s.84-2.72.84-6.06-.47-1.78-.93-1.78-.75-1.57-.75 1.78z" fill="#ffd037"/><path d="M172.05 518.24c2.94 1.61 5.51 2.58 5.73 2.17s-2-2-4.92-3.64-1.78-.44-2 0-1.75-.13 1.19 1.47z" fill="#ffd037"/><path d="M248.56 548.62l-.36 3-.51 4.19-.21 1.75-.51 4.2-.22 1.75-.52 4.2-5.82 47.72c-.52 4.26-7.48 7.58-15.88 7.58h-30.22c-8.4 0-15.35-3.32-15.87-7.58l-5.83-47.72-.51-4.2-.21-1.75-.52-4.2-.21-1.75-.51-4.19-.37-3c-.29-2.41 3.47-4.44 8.23-4.44h61.86c4.75 0 8.52 2.03 8.19 4.44z" fill="#65617d"/><path fill="#9d9cb5" d="M248.23 551.59l-.51 4.2h-76.56l-.51-4.2h77.58zM247.51 557.54l-.51 4.2h-75.11l-.52-4.2h76.14zM246.78 563.49l-.51 4.19h-73.66l-.51-4.19h74.68z"/><path d="M340.85 544.76s-19.42-18.67-18.67 5.6 18.67-5.6 18.67-5.6z" fill="#ee8e9e"/><path d="M515.24 502.19c-.43 1.88-2.52 5-5.78 8.91-16.84 20.28-64.75 62.43-74.14 70.25-11.2 9.34-36.22 6-36.22 6l-46.3.75s-45.93-1.87-49.67-56 53.77 16.43 53.77 16.43 14.4 2.76 19.05 2.24c6.72-.74 20.91-8.58 20.91-8.58s9.71-7.1 18.67-13.07 42.57-45.56 48.55-59.38c3.79-8.77 16-23.11 24.43-32.41 4.84-5.35 8.43-9 8.43-9s20.91 62.28 18.3 73.86z" fill="#ee8e9e"/><path d="M515.24 502.19c-.43 1.88-2.52 5-5.78 8.91-17-17.31-20.55-51.85-20.95-73.81 4.84-5.35 8.43-9 8.43-9s20.91 62.32 18.3 73.9zM692.34 472.89l-16.15 18.82-21.11 1.28-33.79 2.08s-45.56-54.9-37-66.85c3.11-4.31 3.62-10 3-15.37-.08-.74-.19-1.48-.32-2.21a63.89 63.89 0 0 0-5.32-16.4l1.12-.51.72-.33a71.71 71.71 0 0 1 3.66 15.31 316.57 316.57 0 0 1 1.31 11.21c2.6 30.22 21.61 41.59 30.19 45.21a87.07 87.07 0 0 1 8.08 3.91 43.11 43.11 0 0 0 27.1 4.9c21.18-2.78 38.45-18.17 38.45-18.17l.09 15.15z" opacity=".1"/><path d="M692.99 590.32s-138.91-.38-157.22-13.07-7.46-29.5-7.84-33.61-8.21-14.56-10.82-17.56 2.24-6.72 1.49-14.93-7.09 0-7.09 0c-26.15-26.52-20.55-93.73-20.55-93.73s25-6.34 37-11.21c3.25-1.32 8.31-3.2 14-5.23l2.11-.76c14.67-5.25 32.11-11.18 32.11-11.18s3.35-2.37 6.72 4.72c1.54 3.26 3.09 8.51 4.33 16.9a316.57 316.57 0 0 1 1.31 11.21c2.6 30.22 21.61 41.59 30.19 45.21a87.07 87.07 0 0 1 8.08 3.91 43.11 43.11 0 0 0 27.1 4.9c21.18-2.78 38.45-18.17 38.45-18.17l.09 15.15.26 45.52z" fill="#dfe5ee"/><path d="M687.01 531.32l-2.24 14.19s-55.27 13.81-76.92 17.92-68.34-1.12-71.7 7.84 14.19 21.29 14.19 21.29l56-.75 105.68 8.22s40.33-35.48 27.26-60.13-52.27-8.58-52.27-8.58z" fill="#ee8e9e"/><path d="M573.12 419.29s-25.4 20.91-20.54 31 20.54-31 20.54-31zM541.75 457s-25.77 44.44-24.27 47.8 8.59 15.31 8.21 6.35S541.75 457 541.75 457zM552.21 464.85s-6 27.63-11.95 39.21 11.95-39.21 11.95-39.21zM636.56 379.65a64.6 64.6 0 0 1-49.1 33.22h-.12a64.49 64.49 0 0 1-45.46-11.9c15-5.42 34.22-11.94 34.22-11.94s3.35-2.37 6.72 4.72l50.42-23a26.73 26.73 0 0 0 3.32 8.9z" opacity=".1"/><path d="M644.44 346.47a64.31 64.31 0 0 1-8.5 32.06 65.07 65.07 0 0 1-9.63 12.82 64.33 64.33 0 0 1-39.16 19.36h-.13a63.07 63.07 0 0 1-7.18.41 64.6 64.6 0 0 1-64.19-57.32 62.74 62.74 0 0 1-.41-7.29 64.6 64.6 0 1 1 129.2 0z" fill="#ee8e9e"/><path d="M686.27 468.71l6-9s32.86-39.21 65-14.19l-1.12 34.36s-1.5 10.45-3.74 16a10.93 10.93 0 0 0 1.12 10.09s1.87 9-.74 9-7.1 13.44-7.1 13.44-6.35 13.82-2.61 20.17 11.95 27.63 11.95 27.63-13.07-7.84-16.81-20.91c0 0-31.74-24.65-56.39-9z" opacity=".1"/><path d="M755.26 440.12c-.3 13.62-2.52 19.5-2.52 19.5l-56.39 8.59-2.11-14.64c7.38-7.7 34.22-32.18 61.02-13.45z" opacity=".1"/><path d="M686.27 466.71l6-9s32.86-39.21 65-14.19l-1.12 34.36s-1.5 10.45-3.74 16a10.93 10.93 0 0 0 1.12 10.09s1.87 9-.74 9-7.1 13.44-7.1 13.44-6.35 13.82-2.61 20.17 11.95 27.63 11.95 27.63-13.07-7.84-16.81-20.91c0 0-31.74-24.65-56.39-9z" fill="#dfe5ee"/><path d="M739.29 441.32s-54.14 33.24-51.53 62.39c0 0 30.25-53.43 51.53-62.39z" opacity=".1"/><path d="M692.33 472.9l.26 45.52c-10.24.46-19.89-.87-27.52-7.5-5.31-4.62-8.4-11-10-17.9a63.41 63.41 0 0 1-1.3-16.93.91.91 0 0 1 0-.17c.63-12.57 3.52-25.14 2-37.63s-9.09-25.67-21.45-28.3c-2.44-.53-5.18-.72-6.92-2.51-1.92-2-1.83-5.11-1.62-7.88l.36-4.67c.09-1.2.13-2.39.13-3.58a45.83 45.83 0 0 0-37-44.94l-.4-.07c-3.48-.7-7.1-1.39-10.58-.59-6.62 1.53-10.9 7.95-17 11-11.7 5.84-31.21-.55-43.46-2.56-.8-.13-1.56-.28-2.29-.45a62.74 62.74 0 0 1-.41-7.29 64.6 64.6 0 1 1 120.7 32.06c.19.38.4.76.62 1.12 13.59 22.5 57.17 8.27 57.17 8.27l2.62 80.29z" opacity=".1"/><path d="M563.64 355.64c6.06-3.06 10.34-9.48 17-11 3.47-.8 7.09-.11 10.59.58l.4.08a45.87 45.87 0 0 1 36.83 48.53l-.36 4.67c-.22 2.76-.31 5.89 1.63 7.87 1.73 1.79 4.47 2 6.91 2.5 12.36 2.64 19.93 15.75 21.45 28.31s-1.42 25.17-2 37.79 1.74 26.55 11.28 34.84c15 13 37.8 5.6 57.65 4.41-8.78 0-15.36-9.06-15.84-17.82s3.42-17.1 7.15-25 7.47-16.4 6.64-25.14c-1.14-12-10.6-21.61-14.22-33.16-4.22-13.44-.15-27.87 1.76-41.84 3.59-26.16-2-55.61-22.25-72.52-8.48-7.07-18.85-11.42-28.17-17.34-16.7-10.59-29.87-26.12-46.75-36.42s-40.58-14.12-55.31-.92c-5.7 5.11-9.38 12.2-15.24 17.13-11.45 9.65-29.65 9.83-38.83 21.67-7.9 10.19-5.76 24.66-3.23 37.31 3.37 16.87 1.47 30 19.5 33 12.2 1.93 31.7 8.32 43.41 2.47z" fill="#603556"/><path d="M712.2 506.16c-14.45 1.77-28.77 2.68-39.29-6.44-9.54-8.29-11.89-22.21-11.28-34.84s3.53-25.25 2-37.8-9.09-25.66-21.45-28.3c-2.44-.52-5.17-.71-6.91-2.5-1.93-2-1.85-5.12-1.63-7.88l.36-4.67a45.86 45.86 0 0 0-36.83-48.52l-.4-.08c-3.5-.69-7.12-1.38-10.59-.58-6.62 1.53-10.9 8-17 11-11.71 5.85-31.2-.54-43.47-2.55-18-2.95-16.12-16.1-19.5-33-1.89-9.44-3.56-19.9-1-28.84-.48.51-.94 1-1.38 1.61-7.9 10.19-5.76 24.66-3.23 37.31 3.37 16.87 1.47 30 19.5 33 12.26 2 31.76 8.4 43.47 2.55 6.06-3.06 10.34-9.48 17-11 3.47-.8 7.09-.11 10.59.58l.4.08a45.87 45.87 0 0 1 36.83 48.53l-.36 4.67c-.22 2.76-.31 5.89 1.63 7.87 1.73 1.79 4.47 2 6.91 2.5 12.36 2.64 19.93 15.75 21.45 28.31s-1.41 25.17-2 37.79 1.74 26.55 11.28 34.84c15 13 37.8 5.6 57.65 4.41-5.39.03-9.92-3.39-12.75-8.05z" opacity=".1"/><path d="M306.36 539.52l61.65-23a5.87 5.87 0 0 1 7.55 3.44 5.87 5.87 0 0 1-3.44 7.55l-61.65 23-13.22-1.32z" fill="#5c5c8e"/><path d="M373.7 518.08a5.87 5.87 0 0 1-3.45 7.55l-61.69 23.08-9.92-1-1.43 1.52 13.22 1.32 61.65-23a5.87 5.87 0 0 0 3.44-7.55 5.87 5.87 0 0 0-2.4-2.93 6.81 6.81 0 0 1 .58 1.01z" fill="#fff" opacity=".1"/><path fill="#efc8c4" d="M306.37 539.52l4.1 10.99-10.84-1.09-2.37-.24 3.24-3.44 5.87-6.22z"/><path d="M300.49 545.71a2.62 2.62 0 0 1 .64.69 1 1 0 0 1 0 1.07 2.13 2.13 0 0 1-.59.43 2 2 0 0 0-.88 1.48l-2.38-.23z" fill="#727a9c"/><path d="M499.93 609.71s53.4-11.21 143 3l-35.1-25.76-63.86-13.07-45.18 12z" fill="#fff"/><path d="M499.93 609.71s53.4-11.21 143 3l-35.1-25.76-63.86-13.07-45.18 12z" opacity=".1"/><path d="M493.67 621.83s26.89-72.74 165 .23l-49.57-31.9s-118.75-32.81-132.47 5z" fill="#fff"/><path d="M493.67 621.78s26.89-77.77 165 1.4l-49.57-34.6s-118.79-39.24-132.54 1.83z" opacity=".1"/><path d="M493.67 621.81s26.89-78.92 165 .25l-49.57-34.6s-118.75-38.12-132.47 3z" fill="#fff"/><path d="M493.67 621.83s26.89-87.71 165 1.35l-49.61-38.93s-118.75-40-132.47 6.16z" opacity=".1"/><path d="M493.67 621.78s26.89-88.78 165 .28l-49.61-38.93s-118.75-40-132.47 6.16z" fill="#fff"/><path d="M908.01 613.42s-33.15 35.51-3.31 52.76c0 0 3.9 4.7 9.47 2.24 0 0-1.88-1.67 1.89-4.89a22.36 22.36 0 0 0 3.55-3.9 11 11 0 0 0 2.06-6.66s4.34-14.09-9.45-32.38c0 0-1.25-6.12-2.31-6.79l-2.52 8.53s6.33 1.61 8.71 6.43c0 0-8.34-6.55-9.15-5.18-.16.28-1.13 4.59-1.13 4.59s11 2.84 14.44 10.4c0 0-8.89-9.13-14.82-8.77l-1.08 6.58s11.77 2.44 16 10.9c0 0-9.62-9.23-16.16-9.44l-.19 6.61s11.43 2.6 14.92 9.66c0 0-12.19-9.53-14.86-8.14 0 0 .19 6.09 1 7.68 0 0 8.16 2 9.82 6.34 0 0-8.82-5.51-9.58-4.67 0 0 2.37 7.86 5.67 11.21 0 0-5.24-4.59-6.88-10.78 0 0-2.22 3.87-1.66 7.67 0 0-3.27-3.62 1.11-9.58 0 0-1.6-6.2-1.2-7.18 0 0-5.15 5.27-6.47 10 0 0-1-5.92 6.46-11.71v-6.66s-7.18 6.61-8.66 10.7c0 0-.1-6.2 8.81-12.37l1-6.47s-6.62 5.22-9.25 9.42c0 0 1.14-5.78 9.6-11.26l1.17-4.24s-4.76 3.9-6 5.14-1.71 1-1.71 1a21 21 0 0 1 8.2-7.94s3.06-8.62 2.51-8.85zM1056.2 35.62s-44.29 20-23.41 47.39c0 0 1.79 5.85 7.87 5.73 0 0-1.09-2.27 3.63-3.79a21.91 21.91 0 0 0 4.78-2.23 11 11 0 0 0 4.47-5.35s9.44-11.32 3.77-33.51c0 0 1.21-6.13.49-7.16l-5.62 6.9s5.22 3.92 5.56 9.29c0 0-5.16-9.26-6.44-8.3-.26.19-2.81 3.79-2.81 3.79s9 6.86 9.31 15.17c0 0-4.68-11.86-10.3-13.82l-3.53 5.66s9.92 6.79 10.58 16.23c0 0-5.32-12.22-11.27-14.94l-2.73 6s9.55 6.81 10 14.67c0 0-7.57-13.5-10.57-13.24 0 0-2.17 5.68-2 7.47 0 0 6.74 5 6.62 9.64 0 0-6-8.48-7-8 0 0-.85 8.16.91 12.53 0 0-3.07-6.26-2.19-12.6 0 0-3.55 2.72-4.49 6.44 0 0-1.62-4.61 4.72-8.42 0 0 .91-6.33 1.66-7.08 0 0-6.79 2.87-9.81 6.69 0 0 1.35-5.85 10.48-8.31l2.6-6.12s-9.17 3.32-12.12 6.52c0 0 2.3-5.76 12.9-8l3.41-5.58s-8.12 2.27-12.17 5.12c0 0 3.29-4.88 13.21-6.68l2.71-3.46s-5.9 1.76-7.55 2.42-2 .27-2 .27a21 21 0 0 1 10.69-4.16s6-6.78 5.64-7.18zM635.83 48s-66.54 19-34.19 47.28c0 0 2.87 6 12.08 6 0 0-1.72-2.32 5.4-3.73a42.29 42.29 0 0 0 7.18-2.12 12.81 12.81 0 0 0 6.62-5.29s14-11.2 4.81-33.78c0 0 1.67-6.16.55-7.22l-8.32 6.82s8 4.11 8.67 9.54c0 0-8.07-9.49-10-8.56-.39.19-4.16 3.75-4.16 3.75s13.88 7.18 14.51 15.59c0 0-7.4-12.11-16-14.24l-5.2 5.62s15.2 7.13 16.45 16.69c0 0-8.38-12.49-17.46-15.4l-4 6s14.64 7.14 15.6 15.1c0 0-11.83-13.85-16.37-13.68 0 0-3.13 5.7-2.85 7.51 0 0 10.34 5.28 10.29 9.92 0 0-9.34-8.74-10.88-8.28 0 0-1.06 8.23 1.72 12.69 0 0-4.82-6.41-3.66-12.79 0 0-5.29 2.65-6.62 6.38 0 0-2.58-4.69 6.92-8.37 0 0 1.21-6.38 2.32-7.12 0 0-10.2 2.72-14.67 6.5 0 0 1.88-5.88 15.64-8.12l3.78-6.12s-13.8 3.12-18.18 6.27c0 0 3.33-5.76 19.33-7.76l5-5.55s-12.24 2.07-18.3 4.85c0 0 4.85-4.85 19.82-6.4l4-3.42s-8.89 1.62-11.37 2.24-3 .22-3 .22a39.39 39.39 0 0 1 16-3.92s9.12-6.68 8.54-7.1zM832.14 789.42s33.5-35.19 3.83-52.73c0 0-3.86-4.74-9.45-2.34 0 0 1.87 1.69-1.93 4.88a22.57 22.57 0 0 0-3.59 3.86 10.93 10.93 0 0 0-2.12 6.64s-4.49 14.05 9.13 32.47c0 0 1.19 6.13 2.24 6.82l2.61-8.51s-6.32-1.67-8.65-6.51c0 0 8.27 6.62 9.09 5.26.17-.28 1.18-4.57 1.18-4.57s-11-3-14.34-10.54c0 0 8.8 9.22 14.74 8.91l1.14-6.57s-11.74-2.55-15.91-11c0 0 9.53 9.32 16.07 9.6l.25-6.62s-11.41-2.76-14.87-9.86c0 0 12.1 9.66 14.78 8.29 0 0-.13-6.08-1-7.68 0 0-8.14-2.14-9.76-6.44 0 0 8.77 5.6 9.53 4.76 0 0-2.29-7.88-5.56-11.26 0 0 5.2 4.64 6.78 10.84 0 0 2.26-3.85 1.73-7.65 0 0 3.24 3.66-1.2 9.57 0 0 1.54 6.22 1.13 7.19 0 0 5.2-5.22 6.56-9.89 0 0 1 5.93-6.57 11.64l-.1 6.66s7.24-6.54 8.76-10.62c0 0 0 6.21-8.93 12.29l-1 6.46s6.67-5.16 9.34-9.33c0 0-1.2 5.76-9.71 11.16l-1.21 4.23s4.8-3.85 6.08-5.08 1.72-1 1.72-1a20.93 20.93 0 0 1-8.28 7.86s-3.01 8.57-2.51 8.81zM505.41 1.24s5.71 48.24 38.15 36.6c0 0 6.11.05 7.83-5.79 0 0-2.5.36-2.52-4.6a22.39 22.39 0 0 0-.69-5.23 10.92 10.92 0 0 0-3.75-5.87s-7.96-12.42-30.87-13.64c0 0-5.48-3-6.68-2.62l4.89 7.43s5.31-3.8 10.53-2.5c0 0-10.38 2.14-9.85 3.64.1.31 2.76 3.82 2.76 3.82s9.35-6.6 17.35-4.35c0 0-12.71.88-16.27 5.65l4.27 5.08s9.46-7.42 18.67-5.21c0 0-13.26 1.4-17.65 6.25l4.98 4.42s9.36-7.06 17-5.16c0 0-15.16 3.16-15.82 6.09 0 0 4.77 3.78 6.53 4.18 0 0 6.84-4.91 11.18-3.41 0 0-9.9 3.18-9.75 4.3 0 0 7.53 3.26 12.22 2.9 0 0-6.89 1-12.67-1.7 0 0 1.52 4.19 4.79 6.22 0 0-4.88.15-6.61-7 0 0-5.76-2.78-6.25-3.71 0 0 .7 7.33 3.43 11.36 0 0-5.18-3-4.78-12.49l-5-4.33s.41 9.75 2.57 13.53c0 0-4.8-3.93-3.76-14.72l-4.29-4.93s-.29 8.42 1.21 13.14c0 0-3.67-4.6-2.39-14.6l-2.49-3.63s-.09 6.15 0 7.93-.34 1.95-.34 1.95a21 21 0 0 1-.78-11.43s-4.65-7.81-5.15-7.57zM747.87 680.01s-46.82-13-48.32 21.44c0 0-2.36 5.64 2.39 9.44 0 0 .61-2.44 5.21-.59a22.4 22.4 0 0 0 5.1 1.35 10.93 10.93 0 0 0 6.86-1.26s14.5-2.66 24.34-23.34c0 0 4.85-3.93 5-5.19l-8.73 1.71s1.5 6.36-1.68 10.7c0 0 2-10.42.37-10.5-.33 0-4.59 1.11-4.59 1.11s2.56 11.06-2.55 17.61c0 0 4-12.1.93-17.2l-6.34 2.09s3.28 11.56-2.26 19.24c0 0 3.74-12.79.9-18.69l-5.94 2.89s3 11.34-1.67 17.7c0 0 2.82-15.22.35-16.95 0 0-5.3 3-6.33 4.46 0 0 2 8.19-1.08 11.64 0 0 .8-10.37-.29-10.65 0 0-5.88 5.73-7.32 10.21 0 0 1.65-6.77 6.38-11.08 0 0-4.46-.18-7.57 2.07 0 0 1.7-4.57 9-3.44 0 0 4.76-4.29 5.81-4.38 0 0-7-2.14-11.82-1.14 0 0 4.78-3.64 13.37.32l5.92-3s-9.18-3.31-13.49-2.74c0 0 5.45-3 15 2.09l6.18-2.11s-7.68-3.45-12.62-3.85c0 0 5.65-1.65 14.42 3.32l4.3-.93s-5.66-2.42-7.35-3-1.68-1-1.68-1a21 21 0 0 1 10.83 3.6s9-1.4 8.97-1.95z" fill="#6c63ff" opacity=".1"/></svg>