<?xml version="1.0" standalone="no"?>
<!DOCTYPE svg PUBLIC "-//W3C//DTD SVG 20010904//EN"
 "http://www.w3.org/TR/2001/REC-SVG-20010904/DTD/svg10.dtd">
<svg version="1.0" xmlns="http://www.w3.org/2000/svg"
 width="512.000000pt" height="512.000000pt" viewBox="0 0 512.000000 512.000000"
 preserveAspectRatio="xMidYMid meet">
<metadata>
Created by potrace 1.11, written by Peter Selinger 2001-2013
</metadata>
<g transform="translate(0.000000,512.000000) scale(0.100000,-0.100000)"
fill="#000000" stroke="none">
<path d="M0 2560 l0 -2560 2560 0 2560 0 0 2560 0 2560 -2560 0 -2560 0 0
-2560z m4616 1438 c-56 -95 -269 -453 -474 -794 -204 -342 -374 -628 -377
-635 -3 -8 210 -374 474 -814 l478 -800 -1931 -3 c-1721 -2 -1939 -1 -2002 13
-169 37 -312 175 -356 344 -15 61 -17 164 -17 1244 -1 1309 -3 1259 65 1374
69 114 172 193 293 225 61 16 206 17 2008 17 l1942 1 -103 -172z"/>
<path d="M845 3839 c-43 -12 -95 -69 -106 -115 -11 -51 -11 -2277 0 -2328 12
-49 64 -103 112 -116 23 -7 621 -9 1667 -8 l1631 3 -384 643 -385 642 382 638
c209 350 383 640 385 645 6 10 -3266 7 -3302 -4z m1763 -1186 l-3 -498 -24
-60 c-33 -82 -115 -164 -196 -195 -51 -20 -78 -24 -175 -24 -151 0 -209 21
-296 108 -64 64 -87 113 -100 209 l-7 47 110 0 110 0 6 -36 c25 -156 269 -181
336 -35 14 31 16 96 19 509 l3 472 110 0 110 0 -3 -497z"/>
</g>
</svg>
